<svg xmlns="http://www.w3.org/2000/svg" viewBox="0 0 24 24" width="24" height="24">
  <path fill="black" d="M21.469 6.825c.61 1.568.946 3.28.946 5.175 0 3.978-2.146 7.457-5.338 9.36L21.469 6.825zm-3.008 0c.51 1.364.787 2.842.787 4.371 0 .786-.075 1.556-.216 2.302l-2.905 8.412c2.79-1.7 4.67-4.79 4.67-8.316 0-2.44-.868-4.681-2.336-6.769zM12 2.252c5.514 0 9.998 4.484 9.998 9.998S17.514 22.248 12 22.248 2.002 17.764 2.002 12 6.486 2.252 12 2.252zM12 0C5.373 0 0 5.373 0 12s5.373 12 12 12 12-5.373 12-12S18.627 0 12 0zm-5.925 5.925c1.588-1.587 3.77-2.567 6.175-2.567.806 0 1.586.098 2.33.278L9.22 14.316 5.887 5.86c.057-.065.118-.128.188-.187v.252zm-1.45 1.45c-.003.004-.005.008-.008.011l.008-.011zm.017-.02c-.006.007-.012.014-.017.02l.017-.02zm-.025.03C3.525 8.735 2.58 10.253 2.58 12c0 3.544 2.271 6.556 5.425 7.658L3.617 7.385zm1.47 14.032L9.96 12.86l3.257 8.945c-1.03.284-2.118.437-3.237.437-1.38 0-2.703-.248-3.925-.698zm5.73.42l3.086-8.966 3.086 8.42c-.003.006-.007.011-.01.016l-6.162.53z"/>
</svg>
