<svg xmlns="http://www.w3.org/2000/svg" viewBox="0 0 122.52 122.52" fill="currentColor">
  <path d="M8.71 61.26a52.55 52.55 0 0 0 29.3 47.09L12.77 38.06a52.43 52.43 0 0 0-4.06 23.2zm88.1-2.65c0-8.22-2.95-13.91-5.48-18.34-3.37-5.48-6.53-10.12-6.53-15.6 0-6.11 4.64-11.8 11.17-11.8.3 0 .57.04.86.05A52.56 52.56 0 0 0 61.26 8.71C43.1 8.71 27 18.3 17.8 32.62c1.3.04 2.53.07 3.57.07 5.8 0 14.77-.7 14.77-.7 2.99-.17 3.34 4.2.36 4.57 0 0-3 .35-6.34.52l20.17 59.97 12.12-36.33-8.63-23.64c-2.98-.17-5.8-.52-5.8-.52-2.98-.18-2.63-4.74.35-4.57 0 0 9.16.7 14.6.7 5.8 0 14.77-.7 14.77-.7 2.99-.17 3.35 4.2.36 4.57 0 0-3.01.35-6.34.52l20.01 59.52 5.53-18.45c2.4-7.67 4.22-13.17 4.22-17.93zM61.84 65.6l-16.6 48.23a52.6 52.6 0 0 0 32.28-.84 4.7 4.7 0 0 1-.38-.73zm45.3-29.9a42.06 42.06 0 0 1 .35 5.37c0 5.3-.99 11.25-3.97 18.69l-15.93 46.07a52.57 52.57 0 0 0 19.55-70.13zM61.26 0C27.44 0 0 27.44 0 61.26s27.44 61.26 61.26 61.26 61.26-27.44 61.26-61.26S95.08 0 61.26 0zm0 119.63c-32.18 0-58.37-26.19-58.37-58.37S29.08 2.89 61.26 2.89s58.37 26.19 58.37 58.37-26.19 58.37-58.37 58.37z"/>
</svg>
